PathFileType	4	(X/Y/Z)	output.trc
DataRate	CameraRate	NumFrames	NumMarkers	Units	OrigDataRate	OrigDataStartFrame	OrigNumFrames
200	200	4	66	mm	200	1	295
Frame#	Time			LASI			RASI			RSACR			LSACR			USACR			LBAR			RBAR			RHEE			RMT1			RMT5			RMT2			LHEE			LMT1			LMT5			LMT2			LMMAL			LMFC			LLFC			LLMAL			LTIB4			LTIB2			LTIB3			LTIB1			RMMAL			RMFC			RLFC			RLMAL			RTIB1			RTIB2			RTIB3			RTHI1			RTHI4			RTHI3			RTHI2			LTHI1			LTHI4			LTHI3			LTHI2			FHD			LBHD			RBHD			C7			T10			CLAV			LSHO			RSHO			LRAD			LUL			LRFIN			RRAD			RUL			RUFIN			RLEP			RMEP			LLEP			LMEP			LDUPA			LMUPA			LUUPA			RDUPA			RUUPA			RMUPA			RKJC			LKJC			LAKJC			RAKJC
		X1	Y1	Z1	X2	Y2	Z2	X3	Y3	Z3	X4	Y4	Z4	X5	Y5	Z5	X6	Y6	Z6	X7	Y7	Z7	X8	Y8	Z8	X9	Y9	Z9	X10	Y10	Z10	X11	Y11	Z11	X12	Y12	Z12	X13	Y13	Z13	X14	Y14	Z14	X15	Y15	Z15	X16	Y16	Z16	X17	Y17	Z17	X18	Y18	Z18	X19	Y19	Z19	X20	Y20	Z20	X21	Y21	Z21	X22	Y22	Z22	X23	Y23	Z23	X24	Y24	Z24	X25	Y25	Z25	X26	Y26	Z26	X27	Y27	Z27	X28	Y28	Z28	X29	Y29	Z29	X30	Y30	Z30	X31	Y31	Z31	X32	Y32	Z32	X33	Y33	Z33	X34	Y34	Z34	X35	Y35	Z35	X36	Y36	Z36	X37	Y37	Z37	X38	Y38	Z38	X39	Y39	Z39	X40	Y40	Z40	X41	Y41	Z41	X42	Y42	Z42	X43	Y43	Z43	X44	Y44	Z44	X45	Y45	Z45	X46	Y46	Z46	X47	Y47	Z47	X48	Y48	Z48	X49	Y49	Z49	X50	Y50	Z50	X51	Y51	Z51	X52	Y52	Z52	X53	Y53	Z53	X54	Y54	Z54	X55	Y55	Z55	X56	Y56	Z56	X57	Y57	Z57	X58	Y58	Z58	X59	Y59	Z59	X60	Y60	Z60	X61	Y61	Z61	X62	Y62	Z62	X63	Y63	Z63	X64	Y64	Z64	X65	Y65	Z65	X66	Y66	Z66
0	0.000000	134.793823	762.621582	918.209229	130.561432	984.836243	918.769836	310.442230	912.519165	950.289734	309.642883	852.553955	953.536865	298.794342	882.505920	966.663452	1270.782715	-346.529297	26.251877	1226.433716	1876.822510	26.210268	323.071594	1019.678467	39.828358	128.141724	1043.346313	43.515347	165.085144	1113.697754	34.827560	140.188629	1079.997803	42.714298	326.302063	745.139282	45.829723	134.398590	736.448242	46.339024	169.922989	662.755493	33.474483	143.171173	698.045898	45.933964	276.687744	778.668640	72.956436	233.377777	829.157776	456.918518	219.799606	721.541687	454.047363	278.814667	700.919922	69.080925	290.465759	691.553101	209.581024	314.243408	691.516235	270.858826	263.667450	684.529297	268.151001	301.951538	687.184448	314.281219	275.138794	994.038757	68.373917	235.843887	935.529846	446.602081	221.270340	1041.427612	461.404938	284.787872	1068.740479	72.230125	257.515778	1082.793945	319.303406	307.991852	1077.294067	313.957245	276.952209	1081.430176	256.137299	242.868942	1060.172607	783.976013	243.784912	1066.122314	635.321899	192.373230	1066.812866	637.136108	220.281158	1070.312378	697.139954	239.451859	698.955750	778.984192	237.219589	694.858032	646.836304	186.549332	693.653625	637.586792	201.089050	689.505066	701.320557	132.600662	775.141418	1593.374512	243.283173	786.354492	1575.834839	254.578171	909.861450	1571.322266	264.031464	857.765686	1391.405884	286.756805	877.525940	1007.668823	141.307022	872.792725	1329.083496	245.180420	724.751770	1380.942993	237.610977	986.898987	1397.068970	164.419952	222.645279	1357.183105	205.058960	222.020508	1352.801392	150.897400	130.716171	1336.529541	242.824387	1500.843018	1388.356323	289.673920	1499.821899	1382.057495	237.296143	1591.009155	1390.432495	294.569458	1271.274048	1329.428589	256.165863	1271.852661	1295.909424	220.655396	453.877045	1299.804077	179.758636	466.825287	1277.451416	237.077682	505.763214	1353.650391	201.294205	536.378601	1371.350708	238.505463	584.866211	1362.317749	267.530518	1205.881714	1382.066162	258.109131	1144.196899	1383.864258	217.269653	1212.516235	1385.239014	228.557114	988.478760	454.003510	226.588684	775.349731	455.482941	277.751221	739.794312	71.018677	279.963318	1031.389648	70.302017
1	0.005000	134.785934	762.611816	918.198669	130.560760	984.838074	918.767395	310.433441	912.503845	950.292358	309.629669	852.556213	953.553162	298.782410	882.492737	966.667175	1270.780884	-346.538910	26.253183	1226.437988	1876.809814	26.201834	323.078766	1019.669617	39.830105	128.147812	1043.351929	43.503536	165.077423	1113.702881	34.834049	140.189621	1080.004883	42.717922	326.303406	745.144592	45.830448	134.399536	736.450378	46.336239	169.924088	662.755249	33.466244	143.174026	698.051880	45.933464	276.688751	778.669556	72.966759	233.373993	829.162842	456.913147	219.807327	721.538086	454.050812	278.798126	700.922974	69.087128	290.480133	691.556274	209.567215	314.214783	691.507446	270.922943	263.667328	684.525696	268.150238	301.946930	687.163452	314.305023	275.148590	994.036560	68.374771	235.852524	935.520081	446.599335	221.296371	1041.415894	461.398468	284.790833	1068.741455	72.229233	257.521454	1082.796387	319.302979	307.999420	1077.293579	313.964386	276.964294	1081.425293	256.143097	242.862732	1060.176147	783.985413	243.809250	1066.140869	635.341003	192.376907	1066.827637	637.163452	220.293564	1070.319824	697.170044	239.440369	698.947144	778.988586	237.166733	695.387817	646.636047	186.537491	693.650757	637.587646	201.085220	689.500671	701.317017	132.563614	775.143066	1593.380493	243.227875	786.361145	1575.816284	254.547791	909.851562	1571.308350	263.996185	857.763428	1391.408691	286.746033	877.528320	1007.674011	141.265442	872.788391	1329.075928	245.154541	724.744080	1380.948975	237.584854	986.889404	1397.071411	164.407318	222.639984	1357.159790	205.056213	222.009476	1352.782471	150.911697	130.697739	1336.483032	242.790100	1500.839355	1388.362793	289.641266	1499.812256	1382.059692	237.278107	1591.001831	1390.447876	294.511780	1271.267578	1329.437866	256.120087	1271.850220	1295.916260	220.627121	453.890198	1299.791626	179.735199	466.824768	1277.437012	237.054901	505.760223	1353.641113	201.264786	536.375061	1371.336182	238.564514	584.896362	1362.119873	267.487213	1205.880859	1382.067749	258.074066	1144.188232	1383.867188	217.210541	1212.518066	1385.235352	228.574448	988.468018	453.998901	226.590668	775.350464	455.481995	277.743439	739.796265	71.026947	279.969727	1031.389038	70.302002
2	0.010000	134.775955	762.605469	918.194763	130.553940	984.828552	918.756042	310.427612	912.504150	950.300659	309.630554	852.543152	953.555176	298.759033	882.494385	966.663208	1270.782837	-346.547272	26.258297	1226.439331	1876.813232	26.204702	323.073944	1019.678528	39.831768	128.148697	1043.339233	43.492115	165.080750	1113.702759	34.828915	140.195419	1079.999756	42.714989	326.303284	745.144104	45.833206	134.400436	736.436829	46.331341	169.927109	662.748413	33.468872	143.173569	698.042603	45.933765	276.682312	778.675110	72.960922	233.382065	829.159790	456.925171	219.815277	721.535645	454.055359	278.807648	700.918091	69.091446	290.483765	691.559998	209.567459	314.249237	691.507141	270.867584	263.665894	684.527222	268.151306	301.948975	687.161865	314.294373	275.144012	994.037720	68.380005	235.867371	935.517822	446.594849	221.314392	1041.418457	461.401733	284.795013	1068.736084	72.226303	257.536896	1082.774658	319.297882	308.014709	1077.270996	313.956421	276.972565	1081.417358	256.150787	242.866150	1060.165405	783.982788	243.822296	1066.079712	635.340942	192.393494	1066.833496	637.178101	220.169128	1070.377563	697.258118	239.448029	698.953552	778.987793	237.203217	694.859436	646.820862	186.542419	693.652466	637.588074	201.094269	689.500732	701.322571	132.535248	775.135986	1593.381226	243.202194	786.355713	1575.806274	254.523682	909.847412	1571.292480	263.968842	857.754395	1391.416992	286.742645	877.522400	1007.674377	141.227631	872.786072	1329.067505	245.124863	724.736328	1380.933838	237.539612	986.892883	1397.070435	164.411774	222.629013	1357.132202	205.058456	222.012466	1352.774414	150.921585	130.691269	1336.448486	242.753143	1500.834473	1388.367798	289.606506	1499.811401	1382.060791	237.251266	1591.004272	1390.465210	294.480560	1271.269531	1329.451904	256.075348	1271.840820	1295.928955	220.620743	453.877747	1299.778809	179.719009	466.819397	1277.428467	237.035416	505.749725	1353.627563	201.263550	536.361145	1371.338135	238.463120	584.872314	1362.317261	267.429138	1205.881104	1382.076294	258.029907	1144.182617	1383.873535	217.186417	1212.494263	1385.238770	228.590881	988.468140	453.998291	226.598663	775.347717	455.490265	277.744995	739.796631	71.026184	279.969513	1031.386963	70.303154
3	0.015000	134.774307	762.596436	918.187805	130.545578	984.826416	918.749756	310.416779	912.492432	950.308105	309.630615	852.541260	953.559692	298.760956	882.481628	966.679016	1270.789795	-346.542664	26.273207	1226.440552	1876.801270	26.196630	323.071777	1019.680786	39.819939	128.159958	1043.336304	43.488579	165.078873	1113.699097	34.821011	140.196671	1080.007080	42.716095	326.299530	745.145020	45.836555	134.397385	736.449097	46.331703	169.922531	662.750610	33.469868	143.172882	698.040405	45.930779	276.688751	778.668762	72.957588	233.388824	829.152954	456.924438	219.814453	721.527405	454.054657	278.816376	700.928467	69.096687	290.490906	691.548401	209.570908	314.242676	691.499695	270.866028	263.675171	684.526611	268.153168	301.955261	687.175537	314.263214	275.144135	994.036438	68.372002	235.868256	935.502930	446.600464	221.312714	1041.424194	461.405212	284.791290	1068.734497	72.218689	257.534790	1082.785278	319.311981	308.026703	1077.265503	313.967468	276.985626	1081.405273	256.134735	242.872375	1060.159302	783.980591	243.831055	1066.094360	635.332886	192.412262	1066.807617	637.158447	220.172699	1070.372070	697.275391	239.440659	698.948120	778.993958	237.173935	695.394470	646.647095	186.534149	693.646912	637.586060	201.077881	689.503967	701.323608	132.527206	775.122559	1593.362915	243.173965	786.356567	1575.788452	254.491379	909.847778	1571.275269	263.945801	857.757080	1391.415771	286.730072	877.526123	1007.681335	141.199615	872.774414	1329.064697	245.100815	724.736450	1380.937988	237.518356	986.882751	1397.072754	164.412643	222.620850	1357.123169	205.059738	222.011108	1352.760010	150.928680	130.684875	1336.425415	242.717865	1500.834717	1388.376709	289.562378	1499.808228	1382.071045	237.220367	1590.991211	1390.473389	294.429871	1271.257935	1329.459961	256.037384	1271.836548	1295.940308	220.600159	453.877777	1299.763306	179.705887	466.822784	1277.414795	237.017838	505.744141	1353.615723	201.243866	536.350647	1371.326294	238.523010	584.884033	1362.106812	267.373840	1205.867554	1382.077026	257.988281	1144.179565	1383.879028	217.114532	1212.505493	1385.255371	228.590485	988.463562	454.002838	226.601639	775.340210	455.489563	277.752563	739.798584	71.027138	279.967712	1031.385498	70.295349
